#!OML:ASF F:\VICON\USERDATA\INSTALL\rory3\rory3.ASF
:FULLY-SPECIFIED
:DEGREES
725
root -0.439712 18.279 1.92689 -0.532586 57.1426 359.166
lowerback 10.2907 0.947044 -2.33966
upperback 0.0767879 1.01267 0.356063
thorax -5.74533 0.573285 1.53779
lowerneck -16.691 -8.43849 -14.2328
upperneck 31.2165 -10.8624 9.95194
head 15.0903 -4.92634 4.60438
rclavicle -1.24899e-013 8.15017e-015
rhumerus -34.1926 -0.371702 -89.6266
rradius 40.3826
rwrist 3.51063
rhand -15.2452 9.76505
rfingers 7.12502
rthumb 10.9282 -19.9306
lclavicle -1.24899e-013 8.15017e-015
lhumerus -36.1462 0.257986 87.8978
lradius 35.6535
lwrist -0.910694
lhand -16.4623 25.8566
lfingers 7.12502
lthumb 9.75415 55.6107
rfemur -12.4642 -18.1915 18.6412
rtibia 32.2302
rfoot -14.3967 -23.7116
rtoes 19.4604
lfemur -1.84996 6.35685 -25.298
ltibia 8.79618
lfoot -1.46179 15.7504
ltoes 8.26222
726
root -0.446462 18.2787 1.90778 -0.593292 56.0824 359.215
lowerback 10.3431 0.953677 -2.39841
upperback 0.123247 1.01589 0.390871
thorax -5.72778 0.576489 1.60659
lowerneck -16.6328 -8.45158 -14.4289
upperneck 31.2606 -10.8845 10.0871
head 15.1279 -4.94629 4.69474
rclavicle -9.51619e-014 -8.64713e-015
rhumerus -34.067 -0.577003 -89.4381
rradius 40.1563
rwrist 3.77195
rhand -15.4729 9.50448
rfingers 7.12502
rthumb 10.7086 -20.2026
lclavicle -9.51619e-014 -8.64713e-015
lhumerus -36.2324 0.359386 87.8604
lradius 35.8015
lwrist -0.593671
lhand -16.8764 26.4405
lfingers 7.12502
lthumb 9.35463 56.2129
rfemur -12.511 -18.8011 18.5684
rtibia 32.9392
rfoot -14.3852 -23.9178
rtoes 19.8554
lfemur -1.48488 6.66001 -25.3441
ltibia 8.24161
lfoot -1.57172 16.6207
ltoes 10.3621
727
root -0.450778 18.2768 1.87812 -0.314567 55.0653 359.569
lowerback 10.3633 0.930633 -2.47248
upperback 0.122728 0.972364 0.334512
thorax -5.73794 0.556387 1.59571
lowerneck -16.7056 -8.44214 -14.4994
upperneck 31.4159 -10.8516 10.0759
head 15.2165 -4.9427 4.71331
rclavicle -1.1701e-013 -2.28602e-015
rhumerus -33.9719 -0.580283 -89.3345
rradius 39.9371
rwrist 3.71077
rhand -15.5726 9.36114
rfingers 7.12502
rthumb 10.6124 -20.3509
lclavicle -1.1701e-013 -2.28602e-015
lhumerus -36.388 0.313501 87.8087
lradius 36.0385
lwrist -0.202365
lhand -17.176 26.8996
lfingers 7.12502
lthumb 9.0655 56.6848
rfemur -12.6591 -19.6331 18.2642
rtibia 33.6465
rfoot -14.304 -23.9141
rtoes 19.9421
lfemur -1.27674 6.9114 -25.6153
ltibia 7.80683
lfoot -0.847588 17.1335
ltoes 8.64964
728
root -0.453992 18.279 1.85433 -0.0688982 53.9631 359.763
lowerback 10.3206 0.883929 -2.40282
upperback 0.0214794 0.910086 0.207805
thorax -5.8143 0.523308 1.43302
lowerneck -16.7502 -8.36503 -14.3827
upperneck 31.5658 -10.7638 10.0109
head 15.2673 -4.90129 4.68853
rclavicle 2.99171e-014 6.16232e-015
rhumerus -34.0753 -0.719677 -89.3726
rradius 39.7574
rwrist 3.76795
rhand -15.5718 9.56312
rfingers 7.12502
rthumb 10.6132 -20.1489
lclavicle 2.99171e-014 6.16232e-015
lhumerus -36.5252 0.489234 87.5041
lradius 36.0484
lwrist -0.180847
lhand -17.0999 26.7571
lfingers 7.12502
lthumb 9.13894 56.5391
rfemur -12.9122 -20.2513 18.1289
rtibia 34.3144
rfoot -14.2899 -24.0645
rtoes 20.7914
lfemur -1.15273 7.23725 -25.8006
ltibia 7.35467
lfoot -0.709066 17.7761
ltoes 9.32375
729
root -0.461294 18.2813 1.83848 -0.189089 52.8024 359.651
lowerback 10.4504 0.843221 -2.20793
upperback -0.0830311 0.868707 0.116859
thorax -5.99128 0.498227 1.23211
lowerneck -16.7319 -8.32483 -14.2526
upperneck 31.6633 -10.7569 9.98518
head 15.2949 -4.8896 4.66089
rclavicle -1.06474e-014 -8.54774e-015
rhumerus -34.2286 -0.986439 -89.4225
rradius 39.6549
rwrist 4.10967
rhand -15.6475 9.51029
rfingers 7.12502
rthumb 10.5402 -20.2054
lclavicle -1.06474e-014 -8.54774e-015
lhumerus -36.7172 0.669519 87.1389
lradius 36.0422
lwrist -0.222296
lhand -17.1566 26.7592
lfingers 7.12502
lthumb 9.08423 56.5436
rfemur -13.0116 -20.5734 18.2285
rtibia 34.9111
rfoot -13.9992 -24.4869
rtoes 21.7824
lfemur -0.817808 7.63606 -25.7435
ltibia 6.74913
lfoot -1.11139 18.6274
ltoes 12.0795
730
root -0.469213 18.2858 1.82919 -0.28604 51.7162 359.674
lowerback 10.5239 0.816925 -2.27903
upperback -0.0614601 0.82311 0.11094
thorax -6.0092 0.477888 1.27246
lowerneck -16.8418 -8.33134 -14.2851
upperneck 31.7571 -10.7701 10.0162
head 15.3718 -4.89555 4.67821
rclavicle 2.69353e-014 3.8763e-015
rhumerus -34.1786 -1.03045 -89.3579
rradius 39.5475
rwrist 4.15903
rhand -15.7344 9.23357
rfingers 7.12502
rthumb 10.4564 -20.4864
lclavicle 2.69353e-014 3.8763e-015
lhumerus -36.7744 0.918413 86.814
lradius 36.0404
lwrist -0.706745
lhand -16.4009 26.445
lfingers 7.12502
lthumb 9.81343 56.1963
rfemur -12.9581 -20.9402 18.2157
rtibia 35.4468
rfoot -13.6738 -24.8233
rtoes 19.4279
lfemur -0.692376 7.96723 -25.7314
ltibia 6.76711
lfoot -0.869395 19.1527
ltoes 11.047
731
root -0.475098 18.2892 1.8263 -0.225977 50.7016 359.881
lowerback 10.4429 0.7893 -2.58455
upperback 0.015982 0.754728 0.146904
thorax -5.88395 0.451933 1.49429
lowerneck -17.0144 -8.32407 -14.3891
upperneck 31.8572 -10.7249 10.0334
head 15.4612 -4.88565 4.71274
rclavicle -4.41923e-014 9.93923e-017
rhumerus -34.0908 -1.02931 -89.1954
rradius 39.4302
rwrist 3.9133
rhand -15.6513 9.13924
rfingers 7.12502
rthumb 10.5365 -20.5767
lclavicle -4.41923e-014 9.93923e-017
lhumerus -36.771 1.25984 86.5326
lradius 36.0014
lwrist -1.30476
lhand -14.1962 25.1492
lfingers 7.12502
lthumb 11.9399 54.7887
rfemur -12.8512 -21.3125 18.0635
rtibia 35.9292
rfoot -13.3567 -25.1973
rtoes 19.8168
lfemur -0.71863 8.22496 -25.826
ltibia 7.09898
lfoot -0.250615 19.4354
ltoes 7.73889
732
root -0.483522 18.2685 1.818 -0.267839 49.602 359.892
lowerback 10.3132 0.819381 -2.6772
upperback 0.0815928 0.788334 0.144847
thorax -5.74457 0.468829 1.54078
lowerneck -17.1061 -8.32038 -14.2365
upperneck 31.8774 -10.7325 9.93033
head 15.4724 -4.88394 4.63759
rclavicle -9.30312e-014 1.71949e-014
rhumerus -33.9605 -1.42847 -89.0289
rradius 39.2395
rwrist 3.81599
rhand -15.636 9.00724
rfingers 7.12502
rthumb 10.5513 -20.7079
lclavicle -9.30312e-014 1.71949e-014
lhumerus -36.7649 1.12175 86.4716
lradius 35.9456
lwrist -0.835154
lhand -12.5039 24.1061
lfingers 7.12502
lthumb 13.5713 53.6438
rfemur -12.6609 -22.1075 18.1919
rtibia 36.4225
rfoot -12.8782 -25.4289
rtoes 20.3056
lfemur -0.818774 8.56142 -25.8087
ltibia 7.39765
lfoot -0.205639 20.0009
ltoes 7.22641
733
root -0.489165 18.2597 1.803 -0.290165 48.5007 359.926
lowerback 10.1757 0.898403 -2.68582
upperback 0.113573 0.892356 0.064373
thorax -5.63724 0.517488 1.44725
lowerneck -16.9035 -8.35314 -13.9489
upperneck 31.7494 -10.8757 9.84815
head 15.3584 -4.92823 4.52097
rclavicle 6.74998e-014 -1.98785e-016
rhumerus -33.9075 -2.05941 -88.8774
rradius 39.081
rwrist 3.86232
rhand -15.5891 8.92081
rfingers 7.12502
rthumb 10.5965 -20.792
lclavicle 6.74998e-014 -1.98785e-016
lhumerus -36.6738 0.841789 86.3963
lradius 35.6945
lwrist -0.445874
lhand -12.4634 23.8535
lfingers 7.12502
lthumb 13.6105 53.3886
rfemur -12.5772 -22.5247 18.1722
rtibia 36.9156
rfoot -13.4138 -25.344
rtoes 22.7295
lfemur -0.889135 8.89786 -25.8478
ltibia 7.61345
lfoot -1.11768 20.9323
ltoes 10.9673
